# xmcd
#
# Track frame offsets:
#	150
#	19256
#	39748
#	58691
#	79175
#	112067
#	134688
#	165449
#	187413
#	210655
#
# Disc length: 3123 seconds
#
# Revision: 3
# Processed by: cddbd v1.5.2PL0 Copyright (c) Steve Scherf et al.
# Submitted via: EZCDAudioConverter 8.0.2.1
#
DISCID=950c310a
DTITLE=Ngọc Sơn - Tái Ngộ Sau Những Lần Gối Mỏi
DYEAR=1996
DGENRE=blues
TTITLE0=Sau Những Lần Gối Mỏi
TTITLE1=Lá thư cuối cùng
TTITLE2=Trả lại người tình
TTITLE3=Thói đời
TTITLE4=Ngoại ô buồn
TTITLE5=Thư cho vợ hiền
TTITLE6=Cho vừa lòng em
TTITLE7=Nếu mình cách trở
TTITLE8=Nhà anh nhà em
TTITLE9=Ai về sông Tương
EXTD=
EXTT0=
EXTT1=
EXTT2=
EXTT3=
EXTT4=
EXTT5=
EXTT6=
EXTT7=
EXTT8=
EXTT9=
PLAYORDER=
